<svg width="24" height="24" viewBox="0 0 24 24" fill="none" xmlns="http://www.w3.org/2000/svg">
<path d="M10 12.2953C10.3955 12.7834 10.9001 13.1873 11.4796 13.4796C12.0591 13.7718 12.6999 13.9456 13.3586 13.9891C14.0172 14.0327 14.6783 13.945 15.297 13.7319C15.9157 13.5189 16.4775 13.1855 16.9443 12.7544L19.7073 10.2039C20.5462 9.40221 21.0103 8.32844 20.9998 7.21389C20.9893 6.09933 20.505 5.03318 19.6512 4.24504C18.7974 3.4569 17.6424 3.00985 16.435 3.00016C15.2276 2.99048 14.0644 3.41893 13.1959 4.19326L11.6117 5.64704" stroke="#C7C7CC" stroke-width="2" stroke-linecap="round" stroke-linejoin="round"/>
<path d="M13 11.7047C12.6404 11.2166 12.1817 10.8127 11.6549 10.5204C11.1281 10.2282 10.5455 10.0544 9.94676 10.0109C9.348 9.96732 8.74701 10.055 8.18456 10.2681C7.62212 10.4811 7.11138 10.8145 6.68697 11.2456L4.17516 13.7961C3.41258 14.5978 2.99062 15.6716 3.00016 16.7861C3.0097 17.9007 3.44997 18.9668 4.22616 19.755C5.00234 20.5431 6.05233 20.9902 7.14998 20.9998C8.24763 21.0095 9.30511 20.5811 10.0947 19.8067L11.5264 18.353" stroke="#C7C7CC" stroke-width="2" stroke-linecap="round" stroke-linejoin="round"/>
</svg>
