<svg width="21" height="21" viewBox="0 0 21 21" fill="none" xmlns="http://www.w3.org/2000/svg">
<g clip-path="url(#clip0_192_280)">
<path d="M16.0719 8.5445C15.5051 8.5445 14.9585 8.66458 14.4525 8.86473L13.7643 7.54377V5.44225C13.7643 5.32216 13.6833 5.20207 13.5618 5.16205L11.9425 4.56161C11.7805 4.50157 11.6186 4.58163 11.5579 4.74174C11.4971 4.90186 11.5781 5.06197 11.74 5.12202L13.1772 5.64239V7.34363H7.24627V6.7632H7.97499C8.13692 6.7632 8.27862 6.6231 8.27862 6.46299C8.27862 6.30287 8.13692 6.16277 7.97499 6.16277H6.09246C5.93052 6.16277 5.78883 6.30287 5.78883 6.46299C5.78883 6.6231 5.93052 6.7632 6.09246 6.7632H6.639V7.5838L6.05198 8.84471C5.60665 8.66458 5.10059 8.56451 4.59454 8.56451C2.34766 8.56451 0.505615 10.3658 0.505615 12.6074C0.505615 14.8491 2.32741 16.6504 4.59454 16.6504C6.74021 16.6504 8.50128 14.9892 8.66322 12.9077H9.97896C10.0802 12.9077 10.1611 12.8676 10.2219 12.7876L13.3999 8.24428L13.9059 9.18496C12.7521 9.86545 11.9829 11.1464 11.9829 12.5874C11.9829 14.809 13.8047 16.6303 16.0719 16.6303C18.339 16.6303 20.1608 14.829 20.1608 12.5874C20.1608 10.3458 18.339 8.5445 16.0719 8.5445ZM4.59454 16.0299C2.67153 16.0299 1.11288 14.4888 1.11288 12.5874C1.11288 10.686 2.67153 9.14493 4.59454 9.14493C5.01963 9.14493 5.42447 9.22499 5.78883 9.36509L4.31115 12.4673C4.31115 12.4673 4.31115 12.4673 4.31115 12.4873C4.29091 12.5274 4.29091 12.5474 4.29091 12.5874C4.29091 12.5874 4.29091 12.5874 4.29091 12.6074C4.29091 12.6475 4.29091 12.6675 4.31115 12.7075V12.7275C4.31115 12.7475 4.31115 12.7475 4.33139 12.7676C4.33139 12.7876 4.35163 12.7876 4.37187 12.8076C4.37187 12.8076 4.37187 12.8076 4.37187 12.8276C4.39212 12.8476 4.4326 12.8676 4.45284 12.8876H4.47309C4.51357 12.9077 4.53381 12.9077 4.5743 12.9077H8.03571C7.89402 14.6489 6.41634 16.0299 4.59454 16.0299ZM5.06011 12.2872L6.33537 9.62528C7.28675 10.1657 7.95474 11.1464 8.05595 12.2872H5.06011ZM9.81703 12.2872H8.64298C8.54177 10.9062 7.73208 9.72535 6.57827 9.06487L7.12481 7.92405H12.8534L9.81703 12.2872ZM16.0516 16.0299C14.1286 16.0299 12.57 14.4888 12.57 12.5874C12.57 11.3665 13.2177 10.3058 14.1893 9.68532L15.7885 12.7275C15.8492 12.8276 15.9504 12.8876 16.0516 12.8876C16.0921 12.8876 16.1528 12.8676 16.1933 12.8476C16.335 12.7676 16.3957 12.5874 16.3148 12.4473L14.7156 9.40512C15.1407 9.245 15.5861 9.14493 16.0516 9.14493C17.9746 9.14493 19.5333 10.686 19.5333 12.5874C19.5333 14.4888 17.9746 16.0299 16.0516 16.0299Z" fill="white"/>
</g>
<defs>
<clipPath id="clip0_192_280">
<rect width="19.6552" height="19.4341" fill="white" transform="translate(0.505615 0.879089)"/>
</clipPath>
</defs>
</svg>
