<svg width="42" height="40" viewBox="0 0 42 40" fill="none" xmlns="http://www.w3.org/2000/svg">
<path d="M40.25 33.25C40.25 34.1783 39.8813 35.0685 39.2249 35.7249C38.5685 36.3813 37.6783 36.75 36.75 36.75H5.25C4.32174 36.75 3.4315 36.3813 2.77513 35.7249C2.11875 35.0685 1.75 34.1783 1.75 33.25V14C1.75 13.0717 2.11875 12.1815 2.77513 11.5251C3.4315 10.8687 4.32174 10.5 5.25 10.5H12.25L15.75 5.25H26.25L29.75 10.5H36.75C37.6783 10.5 38.5685 10.8687 39.2249 11.5251C39.8813 12.1815 40.25 13.0717 40.25 14V33.25Z" stroke="#E1E1E1" stroke-width="2" stroke-linecap="round" stroke-linejoin="round"/>
<path d="M21 29.75C24.866 29.75 28 26.616 28 22.75C28 18.884 24.866 15.75 21 15.75C17.134 15.75 14 18.884 14 22.75C14 26.616 17.134 29.75 21 29.75Z" stroke="#E1E1E1" stroke-width="2" stroke-linecap="round" stroke-linejoin="round"/>
</svg>
