<svg width="16" height="16" viewBox="0 0 16 16" fill="none" xmlns="http://www.w3.org/2000/svg">
<circle cx="8" cy="8" r="8" fill="white"/>
<circle cx="8" cy="8" r="7" fill="#F37037"/>
<path fill-rule="evenodd" clip-rule="evenodd" d="M11.8234 4.88621C12.0588 5.1216 12.0588 5.50286 11.8234 5.73824L11.4684 6.09277L9.90508 4.531L10.26 4.17646C10.4954 3.94118 10.8773 3.94118 11.1127 4.17646L11.8234 4.88621ZM6.58875 10.9673C7.54265 10.0142 9.77535 7.78391 10.9939 6.56676L9.43063 5.00508C8.21209 6.22223 5.97958 8.45235 5.02539 9.40565L6.58875 10.9673ZM6.1118 11.4387L4.55332 9.88184C4.27012 10.2436 3.85967 11.7371 4.04756 11.9246C4.20234 12.0795 5.74813 11.7147 6.1118 11.4387Z" fill="white"/>
</svg>
