<svg width="14" height="14" viewBox="0 0 14 14" fill="none" xmlns="http://www.w3.org/2000/svg">
<g clip-path="url(#clip0_196_851)">
<path d="M7.13745 12.5296C10.1232 12.5296 12.5437 10.1109 12.5437 7.12734C12.5437 4.14373 10.1232 1.72504 7.13745 1.72504C4.15166 1.72504 1.7312 4.14373 1.7312 7.12734C1.7312 10.1109 4.15166 12.5296 7.13745 12.5296Z" stroke="white" stroke-linecap="round" stroke-linejoin="round"/>
<path d="M1.7312 7.12645H12.5437" stroke="white" stroke-linecap="round" stroke-linejoin="round"/>
<path d="M7.13735 1.72504C8.48961 3.20438 9.25809 5.12418 9.29985 7.12734C9.25809 9.13049 8.48961 11.0503 7.13735 12.5296C5.7851 11.0503 5.01662 9.13049 4.97485 7.12734C5.01662 5.12418 5.7851 3.20438 7.13735 1.72504V1.72504Z" stroke="white" stroke-linecap="round" stroke-linejoin="round"/>
</g>
<defs>
<clipPath id="clip0_196_851">
<rect width="12.975" height="12.9655" fill="white" transform="translate(0.649902 0.643692)"/>
</clipPath>
</defs>
</svg>
