<svg width="21" height="21" viewBox="0 0 21 21" fill="none" xmlns="http://www.w3.org/2000/svg">
<path d="M11.5017 3.67896C10.6594 3.67896 9.96995 4.36612 9.96995 5.2057C9.96995 6.04527 10.6594 6.73243 11.5017 6.73243C12.3441 6.73243 13.0335 6.04527 13.0335 5.2057C13.0335 4.36612 12.3441 3.67896 11.5017 3.67896ZM10.3409 7.03778C10.0043 7.03778 9.67651 7.14832 9.4093 7.35207L7.58613 8.74403C7.57493 8.75263 7.56433 8.762 7.55442 8.77206C7.44942 8.85712 7.36278 8.96555 7.30311 9.09172C7.29361 9.10649 7.2854 9.12206 7.27858 9.13824L6.40978 11.1808C6.33914 11.309 6.2937 11.4579 6.2937 11.618C6.2937 12.1203 6.70882 12.534 7.21276 12.534C7.61664 12.534 7.95915 12.2684 8.08037 11.9048L8.8313 10.226L9.18013 9.97138C9.01215 10.6575 8.80198 11.519 8.80198 11.519L8.30654 14.1079L6.89145 15.9268L6.91778 15.8976C6.72246 16.0906 6.60006 16.3608 6.60006 16.6562C6.60006 17.2429 7.08373 17.7249 7.67229 17.7249C8.0059 17.7249 8.28315 17.55 8.47887 17.311C8.49885 17.3002 8.96552 16.6949 9.40074 16.1271C9.89563 15.4814 10.2458 14.7358 10.4295 13.9433V13.9433V13.9433C10.7758 14.3442 11.0248 14.8197 11.1569 15.3328L11.3893 16.2354C11.5649 16.9175 11.8696 17.7249 12.574 17.7249V17.7249C13.1625 17.7249 13.6462 17.2429 13.6462 16.6562C13.6462 16.5076 13.6092 16.371 13.5564 16.2471L13.2268 14.9295C13.0383 14.1762 12.7054 13.4667 12.2465 12.8403L11.5298 11.8619L11.9116 10.4616L12.3789 10.9787C12.4174 11.0213 12.4672 11.0523 12.5225 11.0681L13.9526 11.4653V11.4653C14.3595 11.5667 14.8238 11.6746 15.1477 11.4082C15.3527 11.2396 15.4843 10.9848 15.4843 10.7019V10.7019C15.4843 10.1277 14.8968 9.86215 14.3426 9.71151L13.8323 9.5728C13.6128 9.51312 13.4205 9.37979 13.2876 9.19516L12.2628 7.77133C12.254 7.75868 12.2442 7.74672 12.2335 7.73555C12.0057 7.34148 10.9108 7.06171 10.4295 7.03778H10.3409Z" stroke="white" stroke-width="0.4"/>
</svg>
