<svg width="24" height="24" viewBox="0 0 24 24" fill="none" xmlns="http://www.w3.org/2000/svg">
<path d="M11.833 2.83301C11.17 2.83301 10.5341 3.0964 10.0652 3.56524C9.5964 4.03408 9.33301 4.66997 9.33301 5.33301V11.9997C9.33301 12.6627 9.5964 13.2986 10.0652 13.7674C10.5341 14.2363 11.17 14.4997 11.833 14.4997C12.496 14.4997 13.1319 14.2363 13.6008 13.7674C14.0696 13.2986 14.333 12.6627 14.333 11.9997V5.33301C14.333 4.66997 14.0696 4.03408 13.6008 3.56524C13.1319 3.0964 12.496 2.83301 11.833 2.83301V2.83301Z" stroke="#F37037" stroke-width="2" stroke-linecap="round" stroke-linejoin="round"/>
<path d="M17.6667 10.333V11.9997C17.6667 13.5468 17.0521 15.0305 15.9581 16.1245C14.8642 17.2184 13.3804 17.833 11.8333 17.833C10.2862 17.833 8.80251 17.2184 7.70854 16.1245C6.61458 15.0305 6 13.5468 6 11.9997V10.333" stroke="#F37037" stroke-width="2" stroke-linecap="round" stroke-linejoin="round"/>
<path d="M11.833 17.833V21.1663" stroke="#F37037" stroke-width="2" stroke-linecap="round" stroke-linejoin="round"/>
<path d="M8.5 21.167H15.1667" stroke="#F37037" stroke-width="2" stroke-linecap="round" stroke-linejoin="round"/>
</svg>
