<svg width="53" height="52" viewBox="0 0 53 52" fill="none" xmlns="http://www.w3.org/2000/svg">
<path d="M26.3634 2.16699C24.6154 2.16699 22.9389 2.85181 21.7029 4.0708C20.4669 5.28978 19.7725 6.94309 19.7725 8.66699V26.0003C19.7725 27.7242 20.4669 29.3775 21.7029 30.5965C22.9389 31.8155 24.6154 32.5003 26.3634 32.5003C28.1114 32.5003 29.7878 31.8155 31.0238 30.5965C32.2599 29.3775 32.9543 27.7242 32.9543 26.0003V8.66699C32.9543 6.94309 32.2599 5.28978 31.0238 4.0708C29.7878 2.85181 28.1114 2.16699 26.3634 2.16699V2.16699Z" stroke="white" stroke-width="4" stroke-linecap="round" stroke-linejoin="round"/>
<path d="M41.742 21.667V26.0003C41.742 30.0228 40.1217 33.8805 37.2376 36.7248C34.3535 39.5691 30.4419 41.167 26.3632 41.167C22.2845 41.167 18.3728 39.5691 15.4887 36.7248C12.6046 33.8805 10.9844 30.0228 10.9844 26.0003V21.667" stroke="white" stroke-width="4" stroke-linecap="round" stroke-linejoin="round"/>
<path d="M26.3633 41.167V49.8337" stroke="white" stroke-width="4" stroke-linecap="round" stroke-linejoin="round"/>
<path d="M17.5752 49.833H35.151" stroke="white" stroke-width="4" stroke-linecap="round" stroke-linejoin="round"/>
</svg>
