<svg width="11" height="16" viewBox="0 0 11 16" fill="none" xmlns="http://www.w3.org/2000/svg">
<path d="M0 7.86479C0 8.84632 0.204985 9.71768 0.614955 10.4789C1.03005 11.2401 1.60657 11.851 2.34451 12.3117C3.08246 12.7674 3.94083 13.0354 4.91964 13.1155V14.8657H2.06778C1.9038 14.8657 1.76543 14.9208 1.65269 15.031C1.53995 15.1412 1.48358 15.2764 1.48358 15.4366C1.48358 15.5919 1.53995 15.7246 1.65269 15.8347C1.76543 15.9449 1.9038 16 2.06778 16H8.93222C9.0962 16 9.23457 15.9449 9.34731 15.8347C9.46005 15.7246 9.51642 15.5919 9.51642 15.4366C9.51642 15.2764 9.46005 15.1412 9.34731 15.031C9.23457 14.9208 9.0962 14.8657 8.93222 14.8657H6.08036V13.1155C7.05917 13.0354 7.91754 12.7674 8.65549 12.3117C9.39343 11.851 9.96739 11.2401 10.3774 10.4789C10.7925 9.71768 11 8.84632 11 7.86479V6.33991C11 6.18466 10.9436 6.05196 10.8309 5.94178C10.7181 5.83161 10.5823 5.77653 10.4235 5.77653C10.2595 5.77653 10.1211 5.83161 10.0084 5.94178C9.89564 6.05196 9.83927 6.18466 9.83927 6.33991V7.81972C9.83927 8.67105 9.65991 9.41721 9.30119 10.0582C8.94246 10.6992 8.43769 11.1975 7.78686 11.5531C7.14116 11.9036 6.38015 12.0789 5.50384 12.0789C4.62753 12.0789 3.86396 11.9036 3.21314 11.5531C2.56231 11.1975 2.05754 10.6992 1.69881 10.0582C1.34009 9.41721 1.16073 8.67105 1.16073 7.81972V6.33991C1.16073 6.18466 1.10436 6.05196 0.991614 5.94178C0.878873 5.83161 0.740508 5.77653 0.57652 5.77653C0.417657 5.77653 0.281854 5.83161 0.169113 5.94178C0.0563708 6.05196 0 6.18466 0 6.33991V7.86479ZM5.50384 10.4639C6.01118 10.4639 6.45702 10.3487 6.84137 10.1183C7.23084 9.88795 7.53063 9.56995 7.74074 9.16432C7.95598 8.75368 8.06359 8.28044 8.06359 7.7446V2.71925C8.06359 2.18341 7.95598 1.71268 7.74074 1.30704C7.53063 0.896401 7.23084 0.5759 6.84137 0.34554C6.45702 0.11518 6.01118 0 5.50384 0C4.99138 0 4.54298 0.11518 4.15863 0.34554C3.77428 0.5759 3.47449 0.896401 3.25926 1.30704C3.04403 1.71268 2.93641 2.18341 2.93641 2.71925V7.7446C2.93641 8.28044 3.04403 8.75368 3.25926 9.16432C3.47449 9.56995 3.77428 9.88795 4.15863 10.1183C4.54298 10.3487 4.99138 10.4639 5.50384 10.4639Z" fill="#454E5D"/>
</svg>
