<svg width="24" height="24" viewBox="0 0 24 24" fill="none" xmlns="http://www.w3.org/2000/svg">
<g clip-path="url(#clip0_336_3918)">
<path d="M11.5703 4.57031C7.71616 4.57031 4.57031 7.71616 4.57031 11.5703C4.57031 15.4245 7.71616 18.5703 11.5703 18.5703C13.3183 18.5703 14.627 18.1673 15.8562 17.1005L17.4219 18.682L18.4219 19.682L19.731 18.3457L18.731 17.3457L17.1542 15.792C18.2209 14.5628 18.5703 13.3183 18.5703 11.5703C18.5703 7.71616 15.4245 4.57031 11.5703 4.57031ZM11.5703 6.57031C14.3436 6.57031 16.5703 8.79704 16.5703 11.5703C16.5703 14.3436 14.3436 16.5703 11.5703 16.5703C8.79704 16.5703 6.57031 14.3436 6.57031 11.5703C6.57031 8.79704 8.79704 6.57031 11.5703 6.57031Z" fill="#212121"/>
</g>
<defs>
<clipPath id="clip0_336_3918">
<rect width="24" height="24" fill="white"/>
</clipPath>
</defs>
</svg>
