<svg width="21" height="21" viewBox="0 0 21 21" fill="none" xmlns="http://www.w3.org/2000/svg">
<path d="M11.7944 1.50732C10.799 1.50732 9.98426 2.31998 9.98426 3.31288C9.98426 4.30578 10.799 5.11844 11.7944 5.11844C12.7899 5.11844 13.6046 4.30578 13.6046 3.31288C13.6046 2.31998 12.7899 1.50732 11.7944 1.50732ZM9.98426 6.16651C9.58641 6.16651 9.19908 6.29723 8.8833 6.5382L6.72876 8.18436C6.71552 8.19453 6.70299 8.20561 6.69128 8.21751C6.5672 8.3181 6.46481 8.44634 6.3943 8.59555C6.38307 8.61302 6.37337 8.63143 6.36531 8.65056L5.33859 11.0662C5.25512 11.2178 5.20142 11.3939 5.20142 11.5832C5.20142 12.1772 5.69199 12.6665 6.28753 12.6665C6.76481 12.6665 7.16957 12.3524 7.31283 11.9224L8.20024 9.93702L8.61248 9.63586C8.41397 10.4473 8.16559 11.4661 8.16559 11.4661L7.58011 14.5278L5.90781 16.6789L5.93892 16.6444C5.70811 16.8726 5.56345 17.1922 5.56345 17.5415C5.56345 18.2353 6.13504 18.8054 6.83058 18.8054C7.22482 18.8054 7.55247 18.5985 7.78376 18.3159C7.80872 18.3024 8.42397 17.5027 8.96135 16.8006C9.48788 16.1127 9.86063 15.3187 10.0561 14.4748L10.0889 14.3332V14.3332C10.4982 14.8073 10.7924 15.3695 10.9484 15.9761L11.2664 17.2117C11.4454 17.9074 11.7388 18.7006 12.451 18.7941C12.5081 18.8015 12.5656 18.8054 12.6232 18.8054C13.3187 18.8054 13.8903 18.2353 13.8903 17.5415C13.8903 17.3657 13.8466 17.2042 13.7842 17.0577L13.3424 15.2906C13.1542 14.5377 12.8216 13.8284 12.3631 13.2021L11.3893 11.8716L11.8404 10.2156L12.3927 10.8271C12.4381 10.8776 12.497 10.9142 12.5624 10.9329L14.2523 11.4026V11.4026C14.7333 11.5225 15.282 11.6501 15.6647 11.3351C15.907 11.1357 16.0625 10.8344 16.0625 10.4998V10.4998C16.0625 9.82081 15.368 9.50663 14.7128 9.32839L14.1102 9.16446C13.8508 9.09391 13.6236 8.9363 13.4667 8.71809L12.2555 7.03402C12.245 7.01906 12.2334 7.00492 12.2208 6.99171C11.9516 6.52567 10.6577 6.19482 10.0889 6.16651H9.98426Z" stroke="#454E5D" stroke-width="0.8"/>
</svg>
